<svg width="75" height="75" viewBox="0 0 75 75" fill="none" xmlns="http://www.w3.org/2000/svg">
<rect x="0.5" y="0.5" width="74" height="74" rx="37" fill="white"/>
<path d="M46.3809 20C47.4412 20 48.3007 20.8596 48.3008 21.9199V38.0371C48.0369 38.0138 47.7699 38 47.5 38C42.5294 38 38.5 42.0294 38.5 47C38.5 49.1365 39.2456 51.0981 40.4893 52.6416H22.4199C21.3597 52.6415 20.5002 51.7819 20.5 50.7217V21.9199C20.5001 20.8596 21.3596 20.0001 22.4199 20H46.3809ZM27.2188 40.5215C26.8874 40.5215 26.6191 40.7897 26.6191 41.1211C26.6191 41.4525 26.8874 41.7207 27.2188 41.7207H36.8193L36.9404 41.709C37.2137 41.6529 37.4189 41.4109 37.4189 41.1211C37.4189 40.8313 37.2137 40.5893 36.9404 40.5332L36.8193 40.5215H27.2188ZM27.2188 34.7598C26.8874 34.7598 26.6191 35.028 26.6191 35.3594C26.6191 35.6907 26.8874 35.959 27.2188 35.959H41.6191L41.7402 35.9473C42.0137 35.8913 42.2197 35.6493 42.2197 35.3594C42.2197 35.0694 42.0137 34.8274 41.7402 34.7715L41.6191 34.7598H27.2188ZM27.2188 29.002C26.8874 29.002 26.6191 29.2702 26.6191 29.6016C26.6191 29.9329 26.8874 30.2012 27.2188 30.2012H41.6191L41.7402 30.1895C42.0137 30.1335 42.2197 29.8915 42.2197 29.6016C42.2197 29.3116 42.0137 29.0696 41.7402 29.0137L41.6191 29.002H27.2188Z" fill="#C0C1C4"/>
<path d="M47.5 39C51.9183 39 55.5 42.5817 55.5 47C55.5 51.4183 51.9183 55 47.5 55C43.0817 55 39.5 51.4183 39.5 47C39.5 42.5817 43.0817 39 47.5 39ZM43.9814 49.8223C43.7894 50.0147 43.7893 50.3262 43.9814 50.5186C44.1739 50.711 44.4863 50.711 44.6787 50.5186L43.9814 49.8223ZM50.3203 50.5186C50.5128 50.7108 50.8242 50.7109 51.0166 50.5186C51.209 50.3262 51.2088 50.0147 51.0166 49.8223L50.3203 50.5186ZM51.0166 43.4834C50.8243 43.2912 50.5127 43.2914 50.3203 43.4834L47.499 46.3037L44.6787 43.4834L44.6016 43.4209C44.4103 43.2943 44.15 43.3149 43.9814 43.4834C43.8129 43.6519 43.7923 43.9122 43.9189 44.1035L43.9814 44.1807L46.8018 47.001L43.9814 49.8223L44.3301 50.1699L44.6787 50.5186L47.499 47.6973L50.3203 50.5186L50.668 50.1699L51.0166 49.8223L48.1953 47.001L51.0166 44.1807C51.209 43.9882 51.209 43.6758 51.0166 43.4834Z" fill="#C0C1C4"/>
</svg>
