<svg width="25" height="24" viewBox="0 0 25 24" fill="none" xmlns="http://www.w3.org/2000/svg">
<path d="M3.5 11.1112H10.9531V4H3.5V11.1112ZM5.36327 5.7778H9.08981V9.3334H5.36327V5.7778Z" fill="white"/>
<path d="M3.5 20H10.9531V12.8888H3.5V20ZM5.36327 14.6666H9.08981V18.2222H5.36327V14.6666Z" fill="white"/>
<path d="M12.8162 4V11.1112H20.2692V4H12.8162ZM18.406 9.3334H14.6794V5.7778H18.406V9.3334Z" fill="white"/>
<path d="M20.2682 18.2221H18.4049V19.9999H20.2682V18.2221Z" fill="white"/>
<path d="M14.6794 12.8888H12.8162V14.6666H14.6794V12.8888Z" fill="white"/>
<path d="M16.5427 14.6666L14.6794 14.6666L14.6794 16.4444H16.5427V14.6666Z" fill="white"/>
<path d="M14.6794 16.4444L12.8162 16.4443V18.2221H14.6794L14.6794 16.4444Z" fill="white"/>
<path d="M16.5427 18.2221L14.6794 18.2221L14.6794 19.9999H16.5427V18.2221Z" fill="white"/>
<path d="M18.4059 16.4443L16.5427 16.4444V18.2221H18.4049L18.4059 16.4443Z" fill="white"/>
<path d="M18.4059 12.8888H16.5426L16.5427 14.6666L18.4059 14.6666V12.8888Z" fill="white"/>
<path d="M20.2682 14.6666L18.4059 14.6666V16.4443L20.2682 16.4444V14.6666Z" fill="white"/>
</svg>
