<svg width="16" height="16" viewBox="0 0 16 16" fill="none" xmlns="http://www.w3.org/2000/svg">
<g clip-path="url(#clip0_12076_30277)">
<mask id="mask0_12076_30277" style="mask-type:alpha" maskUnits="userSpaceOnUse" x="0" y="0" width="24" height="24">
<rect width="24" height="24" fill="#FF0000"/>
</mask>
<g mask="url(#mask0_12076_30277)">
<path d="M13.1252 7.20461C13.1244 7.20158 13.1219 7.1993 13.1188 7.19879L9.6453 6.62936C9.22339 6.56019 9.07728 6.02774 9.40479 5.75292L11.302 4.16099C11.302 4.16097 11.302 4.16101 11.302 4.16099L13.2569 2.52069C13.5842 2.24611 14.0828 2.48182 14.0783 2.90898L14.0376 6.77532C14.0344 7.08144 13.7593 7.31282 13.4571 7.26354L13.1316 7.21044C13.1285 7.20994 13.126 7.20765 13.1252 7.20461Z" fill="#303030"/>
<path d="M12.286 5.3081C12.1448 5.13984 11.9969 4.97722 11.8412 4.83264C9.9499 3.07067 7.00342 2.96253 4.9776 4.66239C2.7768 6.50909 2.49653 9.78355 4.33754 11.9777C6.17855 14.1718 9.44623 14.4577 11.647 12.611C12.3944 11.9839 12.9241 11.1798 13.2207 10.3083" stroke="#303030" stroke-width="1.8" stroke-miterlimit="10" stroke-linecap="round" stroke-linejoin="round"/>
</g>
</g>
<defs>
<clipPath id="clip0_12076_30277">
<rect width="16" height="16" fill="white"/>
</clipPath>
</defs>
</svg>
