<svg width="12" height="12" viewBox="0 0 12 12" fill="none" xmlns="http://www.w3.org/2000/svg">
<g clip-path="url(#clip0_253_67212)">
<path d="M7.67387 3C7.40169 3 7.18116 3.22053 7.18116 3.49271V6.90023H7.15364L4.59244 3.21186C4.50046 3.07917 4.34929 3 4.18757 3H3.84037C3.56819 3 3.34766 3.22053 3.34766 3.49271V8.50729C3.34766 8.77947 3.56819 9 3.84037 9H4.10652C4.37869 9 4.59923 8.77947 4.59923 8.50729V5.07489H4.62524L7.19661 8.78776C7.2886 8.92083 7.44014 9 7.60187 9H7.94039C8.21257 9 8.4331 8.77947 8.4331 8.50729V3.49271C8.4331 3.22053 8.21257 3 7.94039 3H7.67387Z" fill="white"/>
</g>
<defs>
<clipPath id="clip0_253_67212">
<rect width="5.08507" height="6" fill="white" transform="translate(3.34766 3)"/>
</clipPath>
</defs>
</svg>
