<svg width="75" height="75" viewBox="0 0 75 75" fill="none" xmlns="http://www.w3.org/2000/svg">
<path d="M37.498 16.5C43.2887 16.5 47.998 21.2093 47.998 27V32.498C51.0097 33.2803 53.248 35.9986 53.248 39.25V51.5C53.2478 55.3602 50.1083 58.4989 46.248 58.499H28.748C24.8878 58.499 21.7483 55.3602 21.748 51.5V39.25C21.748 35.9986 23.9864 33.2803 26.998 32.498V27C26.998 21.2093 31.7074 16.5 37.498 16.5ZM37.5879 41.1221C35.5883 41.1221 33.9669 42.7426 33.9668 44.7422C33.9668 46.2268 34.861 47.5018 36.1396 48.0605V51.2598C36.1398 52.0595 36.7881 52.708 37.5879 52.708C38.3875 52.7079 39.036 52.0594 39.0361 51.2598V48.0596C40.3144 47.5006 41.208 46.2265 41.208 44.7422C41.208 42.7427 39.5874 41.1222 37.5879 41.1221ZM37.498 20C33.6376 20 30.498 23.1396 30.498 27V32.25H44.498V27C44.498 23.1396 41.3585 20 37.498 20Z" fill="#C0C1C4"/>
</svg>
