<svg width="16" height="16" viewBox="0 0 16 16" fill="none" xmlns="http://www.w3.org/2000/svg">
<g clip-path="url(#clip0_12867_49720)">
<path d="M1 2C1 0.895431 1.89543 0 3 0H11L12.5 1.5L15 4V14C15 15.1046 14.1046 16 13 16H3C1.89543 16 1 15.1046 1 14V2Z" fill="#E15529"/>
<path d="M2.94434 13.3945V8.28809H3.65527V8.88965H3.7168C3.84668 8.65723 4.09619 8.24023 4.7832 8.24023C5.68213 8.24023 6.3418 8.94434 6.3418 10.1543C6.3418 11.3506 5.68896 12.0718 4.79004 12.0752C4.1167 12.0718 3.8501 11.6616 3.7168 11.4189H3.67578V13.3945H2.94434ZM3.66211 10.1406C3.66211 10.9199 4.00391 11.4497 4.62598 11.4531C5.26855 11.4497 5.60352 10.8857 5.60352 10.1406C5.60352 9.40918 5.27881 8.85889 4.62598 8.8623C3.99707 8.85889 3.66211 9.36816 3.66211 10.1406ZM8.2441 12.0752C7.34859 12.0718 6.69234 11.3506 6.69234 10.1543C6.69234 8.94434 7.35885 8.24023 8.25094 8.24023C8.94137 8.24023 9.19088 8.65723 9.32418 8.88965H9.35836V7.05078H10.0898V12H9.37887V11.4189H9.32418C9.18746 11.6616 8.92086 12.0718 8.2441 12.0752ZM7.43746 10.1406C7.43404 10.8857 7.769 11.4497 8.40816 11.4531C9.03023 11.4497 9.37887 10.9199 9.37887 10.1406C9.37887 9.36816 9.03707 8.85889 8.40816 8.8623C7.76217 8.85889 7.43404 9.40918 7.43746 10.1406ZM12.6005 8.28809V8.86914H11.8007V12H11.0693V8.86914H10.495V8.28809H11.0693V7.85742C11.0727 7.19434 11.4965 6.81836 12.1767 6.81836C12.351 6.81836 12.5321 6.83887 12.6757 6.86621V7.47461C12.539 7.4541 12.433 7.44727 12.3681 7.44727C11.9819 7.44727 11.8007 7.60449 11.8007 7.9668V8.28809H12.6005Z" fill="white"/>
<path d="M11 0L13 2L15 4H12C11.4477 4 11 3.55228 11 3V0Z" fill="#B83D16"/>
</g>
<defs>
<clipPath id="clip0_12867_49720">
<rect width="16" height="16" fill="white" transform="matrix(0 -1 -1 0 16 16)"/>
</clipPath>
</defs>
</svg>
