<svg width="24" height="24" viewBox="0 0 24 24" fill="none" xmlns="http://www.w3.org/2000/svg">
<g clip-path="url(#clip0_543_76809)">
<path d="M21.176 2.96333C17.832 -0.383075 6.15202 -0.383075 2.80802 2.96013C0.748017 5.02333 0.0256168 10.0377 0.225617 13.8249C0.416017 17.4257 1.37442 20.1777 2.85522 21.3737C6.44082 24.2721 17.5432 24.2721 21.1288 21.3737C24.86 18.2097 24.52 6.42013 21.176 2.96333ZM3.65682 3.81212C6.53682 0.932125 17.4448 0.932125 20.3272 3.81212C21.3064 4.79052 22.0424 6.88093 22.3832 9.38013H20.3728C19.668 4.99133 13.3544 5.00093 12.6528 9.38013H11.3312C10.6264 4.99133 4.31282 5.00093 3.61122 9.38013H1.60082C1.94162 6.88013 2.67762 4.79052 3.65682 3.81212ZM19.2304 9.98013C19.1376 13.5689 13.8864 13.5641 13.792 9.98013H13.7904C13.8816 6.39213 19.14 6.39453 19.2304 9.98013ZM10.1904 9.98013C10.0992 13.5673 4.84082 13.5665 4.75042 9.98013C4.84082 6.39293 10.1 6.39373 10.1904 9.98013ZM20.3752 20.4393C17.1624 23.0329 6.82162 23.0329 3.60882 20.4393C1.81282 19.2313 1.09682 13.6529 1.46962 10.5785H3.61122C4.31602 14.9673 10.6296 14.9577 11.3312 10.5785H12.6528C13.3576 14.9673 19.6712 14.9577 20.3728 10.5785H22.5144C22.8864 13.6529 22.1704 19.2289 20.3752 20.4393Z" fill="#222222"/>
<path d="M15.9511 15.8057C13.5639 17.4729 10.4199 17.4729 8.0327 15.8057C7.3887 15.4025 6.7447 16.3625 7.3679 16.8041C8.7519 17.7041 10.3447 18.2313 11.9919 18.3361C12.9007 18.3609 17.5767 17.2729 16.7583 15.9673C16.5743 15.7081 16.2207 15.6377 15.9511 15.8057Z" fill="#222222"/>
<path d="M6.87195 8.94572V11.0137C6.87515 11.7977 8.06875 11.7985 8.07195 11.0137V8.94572C8.06875 8.16172 6.87515 8.16092 6.87195 8.94572Z" fill="#222222"/>
<path d="M15.912 8.94572V11.0137C15.9152 11.7977 17.1088 11.7985 17.112 11.0137V8.94572C17.1088 8.16172 15.9152 8.16092 15.912 8.94572Z" fill="#222222"/>
</g>
<defs>
<clipPath id="clip0_543_76809">
<rect width="24" height="24" fill="white"/>
</clipPath>
</defs>
</svg>
