<svg width="24" height="24" viewBox="0 0 24 24" fill="none" xmlns="http://www.w3.org/2000/svg">
<path d="M15.1014 12.4785C16.6191 11.4701 17.625 9.7471 17.625 7.79102C17.625 4.68966 15.1014 2.16602 12 2.16602C8.89865 2.16602 6.375 4.68966 6.375 7.79102C6.375 9.7471 7.37838 11.4701 8.89865 12.4785C5.4603 13.7479 3 17.0444 3 20.916H4.5C4.5 16.7809 7.86486 13.416 12 13.416C16.1351 13.416 19.5 16.7809 19.5 20.916H21C21 17.0444 18.5397 13.7454 15.1014 12.4785ZM12 11.916C9.72466 11.916 7.875 10.0664 7.875 7.79102C7.875 5.51568 9.72466 3.66602 12 3.66602C14.2753 3.66602 16.125 5.51568 16.125 7.79102C16.125 10.0664 14.2753 11.916 12 11.916Z" fill="#111111"/>
</svg>
