<svg width="25" height="25" viewBox="0 0 25 25" fill="none" xmlns="http://www.w3.org/2000/svg">
<path d="M4.96875 21.5723L21.0848 5.57227" stroke="#111111" stroke-width="1.28359" stroke-linecap="round"/>
<path d="M17.9434 11.249C18.4411 11.8278 18.8456 12.482 19.1387 13.1895C19.5034 14.0701 19.6902 15.0146 19.6875 15.9678C19.6875 16.0293 19.6759 16.0906 19.6523 16.1475C19.6288 16.2043 19.5943 16.2563 19.5508 16.2998C19.5073 16.3433 19.4553 16.3778 19.3984 16.4014C19.3415 16.4249 19.2803 16.4366 19.2188 16.4365L13.5938 16.4375V21.5938C13.5938 21.8424 13.4951 22.081 13.3193 22.2568C13.1435 22.4326 12.9049 22.5312 12.6562 22.5312C12.4076 22.5312 12.169 22.4326 11.9932 22.2568C11.8174 22.081 11.7188 21.8424 11.7188 21.5938V17.4287L17.9434 11.249ZM17.3438 4.25C17.4053 4.24997 17.4666 4.26161 17.5234 4.28516C17.5803 4.3087 17.6323 4.34416 17.6758 4.3877C17.7191 4.43111 17.7539 4.48241 17.7773 4.53906C17.8009 4.59594 17.8125 4.65719 17.8125 4.71875C17.8125 5.67821 17.4912 6.96936 16.876 7.71094L16.875 10.1494L17.0518 10.3262L10.8965 16.4375H6.09375C5.96946 16.4375 5.85058 16.3877 5.7627 16.2998C5.67482 16.2119 5.62502 16.093 5.625 15.9688C5.62225 15.0154 5.80912 14.0712 6.17383 13.1904C6.53858 12.3096 7.07406 11.5092 7.75 10.8369L8.4375 10.1494V7.71191C7.82134 6.97034 7.5 5.67803 7.5 4.71875C7.49997 4.65719 7.51259 4.59594 7.53613 4.53906C7.55967 4.48234 7.59428 4.43112 7.6377 4.3877C7.6812 4.34419 7.73222 4.3087 7.78906 4.28516C7.84593 4.26161 7.9072 4.24998 7.96875 4.25H17.3438Z" fill="#111111"/>
</svg>
