<svg width="24" height="24" viewBox="0 0 24 24" fill="none" xmlns="http://www.w3.org/2000/svg">
<path d="M10.4497 3.76126L10.5933 3.76907C10.924 3.80287 11.2235 3.93928 11.4497 4.18704C11.6354 4.39049 11.7389 4.63401 11.7915 4.87552C12.6932 5.13618 13.4861 5.5408 14.1294 6.11673C14.8779 6.78697 15.3937 7.66288 15.6519 8.73685L15.6929 8.92532C15.7783 9.36421 15.7972 9.80134 15.8071 10.1997C15.8189 10.675 15.8175 11.0833 15.8677 11.4868L15.9722 12.2485C16.0857 13.0102 16.2275 13.7694 16.394 14.522L16.4253 14.6284C16.5171 14.8747 16.7376 15.1 17.1196 15.3003L17.313 15.4146C17.5137 15.5468 17.7259 15.7326 17.8677 15.9741L17.9536 16.1372C18.1386 16.5288 18.2025 16.9972 17.9487 17.4165C17.7006 17.8265 17.2641 17.9958 16.8384 18.0317L16.6567 18.0396C12.5227 18.0409 8.38537 18.0455 4.24854 18.0269C4.0071 18.0258 3.7346 17.9532 3.54053 17.8813C3.43888 17.8437 3.32367 17.7931 3.22217 17.73C3.17336 17.6996 3.10296 17.651 3.03662 17.5815C2.98574 17.5283 2.8407 17.3646 2.83643 17.1079L2.8374 17.1069C2.83383 16.896 2.84742 16.6121 2.90283 16.3491C2.93041 16.2183 2.97378 16.066 3.04541 15.9233C3.11243 15.79 3.24206 15.5907 3.48096 15.4751L3.48193 15.4741L3.71533 15.3481C4.22257 15.0409 4.47514 14.6443 4.62842 14.1831C4.8241 13.5941 4.84803 12.9609 4.94678 12.1675L4.9751 11.8999C5.03177 11.2761 5.02239 10.6437 5.03662 9.94583L5.04541 9.71536C5.18613 7.36225 6.73346 5.51276 9.064 4.86673C9.1267 4.61026 9.2414 4.34953 9.4517 4.14017C9.7222 3.87088 10.0757 3.75638 10.4487 3.76126H10.4497Z" stroke="#111111" stroke-width="1.28"/>
<path d="M7.97607 18.4008C8.06873 19.2482 8.53534 19.8267 9.3765 20.1689C10.2833 20.5379 11.174 20.4656 11.986 19.9583C12.5922 19.5794 12.9237 19.0699 12.9761 18.401L7.97607 18.4008Z" stroke="#111111" stroke-width="1.28"/>
</svg>
