<svg width="24" height="24" viewBox="0 0 24 24" fill="none" xmlns="http://www.w3.org/2000/svg">
<path d="M6.13636 9.1665H13.1618V5.84657C13.1618 5.56441 13.3311 5.30108 13.5945 5.19762C13.8578 5.08475 14.1588 5.1506 14.3657 5.3481L20.3661 11.3484C20.6388 11.6212 20.6388 12.0632 20.3661 12.336L14.3657 18.5056C14.234 18.6467 14.0459 18.7219 13.8578 18.7219C13.7638 18.7219 13.6791 18.7031 13.5945 18.6655C13.3311 18.562 13.1524 18.2987 13.1524 18.0165V14.5649H6.12695C4.64097 14.5649 3.42773 13.3517 3.42773 11.8657C3.42773 10.3797 4.64097 9.1665 6.12695 9.1665H6.13636Z" fill="#EC5047"/>
</svg>
