<svg width="24" height="24" viewBox="0 0 24 24" fill="none" xmlns="http://www.w3.org/2000/svg">
<path d="M19.3333 9.24951C18.8273 9.24951 18.4166 9.66016 18.4166 10.1662C18.4166 10.6722 18.8273 11.0828 19.3333 11.0828C19.8393 11.0828 20.2499 10.6722 20.2499 10.1662C20.2499 9.66016 19.8393 9.24951 19.3333 9.24951Z" fill="black"/>
<path d="M11.9999 7.4165C8.96637 7.4165 6.49988 9.883 6.49988 12.9165C6.49988 15.95 8.96637 18.4165 11.9999 18.4165C15.0334 18.4165 17.4999 15.95 17.4999 12.9165C17.4999 9.883 15.0334 7.4165 11.9999 7.4165ZM11.9999 16.5832C9.97889 16.5832 8.33323 14.9375 8.33323 12.9165C8.33323 10.8955 9.97889 9.24985 11.9999 9.24985C14.0209 9.24985 15.6665 10.8955 15.6665 12.9165C15.6665 14.9375 14.0209 16.5832 11.9999 16.5832Z" fill="black"/>
<path d="M20.316 6.49966H19.3232C19.2114 6.49966 19.1132 6.423 19.086 6.31404L18.6093 4.40652C18.3781 3.48141 17.5467 2.83301 16.5934 2.83301H7.4066C6.45334 2.83301 5.62198 3.48141 5.39072 4.40644L4.91402 6.31412C4.88678 6.423 4.78864 6.49966 4.67675 6.49966H3.684C2.20149 6.49966 1 7.70115 1 9.18366V18.4814C1 19.964 2.20154 21.1663 3.684 21.1663H20.316C21.7985 21.1663 23 19.9639 23 18.4814V9.18366C23 7.70115 21.7985 6.49966 20.316 6.49966ZM21.1667 18.4814C21.1667 18.9517 20.7856 19.333 20.316 19.333H3.684C3.21435 19.333 2.83335 18.9517 2.83335 18.4814V9.18366C2.83335 8.71367 3.21401 8.33301 3.684 8.33301H4.67675C5.63005 8.33301 6.46137 7.68366 6.69263 6.75868L7.16932 4.85099C7.19644 4.74258 7.29419 4.66636 7.4066 4.66636H16.5934C16.7059 4.66636 16.8036 4.74258 16.8307 4.85108L17.3074 6.75868C17.5386 7.68366 18.3699 8.33301 19.3232 8.33301H20.316C20.786 8.33301 21.1667 8.71367 21.1667 9.18366V18.4814Z" fill="black"/>
</svg>
