<svg width="14" height="14" viewBox="0 0 14 14" fill="none" xmlns="http://www.w3.org/2000/svg">
<path d="M7 0C10.866 0 14 3.13401 14 7C14 10.866 10.866 14 7 14C3.13401 14 0 10.866 0 7C0 3.13401 3.13401 0 7 0ZM9.93457 4.06543C9.78495 3.91581 9.55365 3.89733 9.38379 4.00977L9.31543 4.06543L7 6.38086L4.68457 4.06543L4.61621 4.00977C4.44635 3.89733 4.21505 3.91581 4.06543 4.06543C3.91581 4.21505 3.89733 4.44635 4.00977 4.61621L4.06543 4.68457L6.38086 7L4.06543 9.31543C3.89458 9.48628 3.89458 9.76372 4.06543 9.93457C4.23628 10.1054 4.51372 10.1054 4.68457 9.93457L7 7.61914L9.31543 9.93457L9.38379 9.99023C9.55365 10.1027 9.78495 10.0842 9.93457 9.93457C10.0842 9.78495 10.1027 9.55365 9.99023 9.38379L9.93457 9.31543L7.61914 7L9.93457 4.68457L9.99023 4.61621C10.1027 4.44635 10.0842 4.21505 9.93457 4.06543Z" fill="#D9D9D9"/>
</svg>
