<svg width="25" height="25" viewBox="0 0 25 25" fill="none" xmlns="http://www.w3.org/2000/svg">
<path d="M19.6875 15.9678C19.6876 16.0294 19.6755 16.0904 19.6519 16.1473C19.6284 16.2042 19.5938 16.2558 19.5503 16.2994C19.5068 16.3429 19.4551 16.3774 19.3982 16.401C19.3413 16.4245 19.2803 16.4366 19.2188 16.4366L13.5938 16.437V21.5938C13.5938 21.8424 13.495 22.0809 13.3192 22.2567C13.1434 22.4325 12.9049 22.5312 12.6563 22.5312C12.4076 22.5312 12.1692 22.4325 11.9934 22.2567C11.8176 22.0809 11.7188 21.8424 11.7188 21.5938V16.437L6.09379 16.4375C5.96948 16.4375 5.85026 16.3881 5.76235 16.3002C5.67445 16.2123 5.62505 16.0931 5.62503 15.9688C5.62228 15.0154 5.80867 14.071 6.17342 13.1901C6.53817 12.3093 7.07402 11.5096 7.74996 10.8372L8.43753 10.1497V7.71144C7.82137 6.96986 7.50004 5.67805 7.50004 4.71876C7.50001 4.6572 7.51211 4.59623 7.53565 4.53935C7.5592 4.48246 7.59372 4.43077 7.63725 4.38724C7.68078 4.3437 7.73247 4.30917 7.78935 4.28562C7.84623 4.26208 7.9072 4.24997 7.96877 4.25H17.3438C17.4054 4.24997 17.4663 4.26208 17.5232 4.28562C17.5801 4.30917 17.6318 4.3437 17.6753 4.38724C17.7188 4.43077 17.7534 4.48246 17.7769 4.53935C17.8005 4.59623 17.8125 4.6572 17.8125 4.71876C17.8125 5.67822 17.4912 6.96912 16.876 7.71069L16.875 10.1497L17.5626 10.8372C18.2385 11.5094 18.7743 12.309 19.139 13.1897C19.5038 14.0704 19.6902 15.0146 19.6875 15.9678Z" fill="#111111"/>
</svg>
