<svg width="25" height="25" viewBox="0 0 25 25" fill="none" xmlns="http://www.w3.org/2000/svg">
<path d="M10.1445 19.6152C10.1445 20.7947 11.0972 21.7519 12.2752 21.7585C13.4536 21.7519 14.406 20.7951 14.406 19.6152H10.1445Z" fill="#111111"/>
<path d="M17.4932 8.84669L19.1757 7.25423L18.3812 6.45976L17.036 7.71501C15.819 5.53353 13.4126 5.39123 13.4126 5.39123C13.4126 3.93976 12.7675 3.76004 12.2739 3.75781C11.7803 3.76004 11.1352 3.93976 11.1352 5.3916C11.1352 5.3916 6.23159 5.6799 6.88451 11.7808C6.95417 12.4315 7.29361 14.2568 5.75208 15.4423C4.34396 16.5247 4.12274 17.6189 4.35508 18.5079C4.42474 18.7754 4.53925 18.9885 5.38449 18.9885H5.7632L4.45687 20.2941L5.25135 21.0886L7.35178 18.9881L17.4932 8.84669Z" fill="#111111"/>
<path d="M18.799 15.4443C17.2571 14.2588 17.5966 12.4335 17.6666 11.7828C17.697 11.4985 17.7151 11.2262 17.7229 10.9668L9.69922 18.9905H19.1666C20.0119 18.9905 20.1264 18.7774 20.1964 18.5099C20.4287 17.6205 20.2071 16.5267 18.7994 15.4443H18.799Z" fill="#111111"/>
<path d="M4.68164 20.8633L19.3702 6.28047" stroke="#111111" stroke-width="1.1699" stroke-linecap="round"/>
</svg>
