<svg width="14" height="14" viewBox="0 0 14 14" fill="none" xmlns="http://www.w3.org/2000/svg">
<path fill-rule="evenodd" clip-rule="evenodd" d="M8.3195 6.26761C8.13219 6.12535 7.9425 5.98071 7.70302 5.88824C7.47066 5.7934 7.28097 5.74835 6.99644 5.74835C6.76408 5.74835 6.52223 5.7934 6.28986 5.88824C6.10255 5.98308 5.86781 6.12535 5.72555 6.26761C5.53823 6.45493 5.3936 6.64461 5.3035 6.88172C5.20628 7.06903 5.16123 7.30614 5.16123 7.5883C5.16123 7.82541 5.20628 8.05777 5.3035 8.29488C5.3936 8.48219 5.53586 8.7193 5.72555 8.85919C5.86781 9.05125 6.10255 9.19114 6.28986 9.28362C6.52223 9.37846 6.76408 9.42588 6.99644 9.42588C7.28334 9.42588 7.47066 9.37609 7.70302 9.28362C7.94487 9.18877 8.13219 9.05125 8.3195 8.85919C8.46177 8.7193 8.6064 8.48219 8.6965 8.29488C8.79372 8.05777 8.83877 7.82541 8.83877 7.5883C8.83877 7.30614 8.79372 7.06903 8.6965 6.88172C8.6064 6.64461 8.46414 6.4573 8.3195 6.26761ZM2.70006 4.42766C2.98696 4.42766 3.17427 4.66477 3.17427 4.94692C3.17427 5.22908 2.98696 5.46619 2.70006 5.46619C2.36811 5.46619 2.18079 5.22908 2.18079 4.94692C2.18079 4.66477 2.36811 4.42766 2.70006 4.42766ZM6.99644 4.84971C7.38056 4.84971 7.70302 4.94692 8.03497 5.08682C8.36692 5.18166 8.6965 5.41877 8.93835 5.65113C9.17072 5.88824 9.40545 6.22019 9.50267 6.54977H9.54772C9.64493 6.83193 9.73503 7.20893 9.73503 7.5883C9.73503 7.91551 9.64493 8.29488 9.54772 8.62683H9.50267C9.40545 8.95878 9.17072 9.24094 8.93835 9.47804C8.69887 9.7602 8.36692 9.94752 8.03497 10.0874C7.70302 10.2297 7.38056 10.2795 6.99644 10.2795C6.61233 10.2795 6.28986 10.2297 5.95791 10.0874C5.62596 9.94752 5.34855 9.7602 5.06165 9.47804C4.82928 9.24094 4.63248 8.95878 4.49733 8.62683C4.35507 8.29488 4.31002 7.91551 4.31002 7.5883C4.31002 7.20893 4.35507 6.83193 4.49733 6.54977C4.63248 6.21782 4.82928 5.88824 5.06165 5.65113C5.34855 5.41877 5.62596 5.18166 5.95791 5.08682C6.28986 4.94692 6.61944 4.84971 6.99644 4.84971ZM1.70658 3.86334C1.32958 3.86334 1 4.19055 1 4.56755V10.5593C1 10.986 1.33195 11.3109 1.76111 11.3109H12.2413C12.6633 11.3109 13 10.9884 13 10.5593V4.56755C13 4.19055 12.7131 3.86334 12.3314 3.86334H9.54772L9.3604 2.86986C9.31535 2.58771 9.0735 2.40039 8.79609 2.40039H5.20628C4.9668 2.40039 4.73207 2.58771 4.68702 2.86986L4.44517 3.86334H1.70658Z" fill="#111111"/>
</svg>
