<svg width="24" height="24" viewBox="0 0 24 24" fill="none" xmlns="http://www.w3.org/2000/svg">
<path d="M5.5 11H17.5" stroke="#00458E" stroke-width="1.6" stroke-linecap="round"/>
<path d="M4.01064 8.10638C4.29255 8.10638 4.52128 7.87766 4.52128 7.59574V4.02128H8.09574C8.37766 4.02128 8.60638 3.79255 8.60638 3.51064C8.60638 3.22872 8.37766 3 8.09574 3H4.01064C3.72872 3 3.5 3.22872 3.5 3.51064V7.59574C3.5 7.87766 3.72872 8.10638 4.01064 8.10638Z" fill="#00458E"/>
<path d="M18.9894 3H14.9043C14.6224 3 14.3937 3.22872 14.3937 3.51064C14.3937 3.79255 14.6224 4.02128 14.9043 4.02128H18.4788V7.59574C18.4788 7.87766 18.7075 8.10638 18.9894 8.10638C19.2713 8.10638 19.5001 7.87766 19.5001 7.59574V3.51064C19.5001 3.22872 19.2713 3 18.9894 3Z" fill="#00458E"/>
<path d="M8.09574 17.9787H4.52128V14.4042C4.52128 14.1223 4.29255 13.8936 4.01064 13.8936C3.72872 13.8936 3.5 14.1223 3.5 14.4042V18.4893C3.5 18.7712 3.72872 18.9999 4.01064 18.9999H8.09574C8.37766 18.9999 8.60638 18.7712 8.60638 18.4893C8.60638 18.2074 8.37766 17.9787 8.09574 17.9787Z" fill="#00458E"/>
<path d="M18.9894 13.8936C18.7075 13.8936 18.4788 14.1223 18.4788 14.4042V17.9787H14.9043C14.6224 17.9787 14.3937 18.2074 14.3937 18.4893C14.3937 18.7712 14.6224 18.9999 14.9043 18.9999H18.9894C19.2713 18.9999 19.5001 18.7712 19.5001 18.4893V14.4042C19.5001 14.1223 19.2713 13.8936 18.9894 13.8936Z" fill="#00458E"/>
</svg>
