<svg width="25" height="24" viewBox="0 0 25 24" fill="none" xmlns="http://www.w3.org/2000/svg">
<path d="M18.8082 13.3394C18.7287 13.91 18.6613 14.4824 18.5663 15.051C18.2713 16.7996 17.7345 18.4912 16.9015 20.1097C16.7966 20.3138 16.6783 20.516 16.5392 20.7049C16.1448 21.2393 15.3803 21.4187 14.7451 21.1378C14.0878 20.8473 13.7984 20.235 14.0812 19.6417C14.8545 18.0213 15.5129 16.3724 15.7648 14.6238C16.1945 11.6412 15.8653 8.73641 14.5507 5.93225C14.4126 5.63703 14.2767 5.3399 14.1541 5.03993C13.7895 4.14856 14.0248 3.66918 15.0113 3.26953C15.2864 3.26953 15.5615 3.26953 15.8377 3.26953C16.3701 3.5059 16.6585 3.91219 16.8871 4.36594C17.7212 6.01104 18.2769 7.72353 18.5696 9.49868C18.6635 10.0682 18.7298 10.6416 18.8093 11.2131C18.8082 11.9212 18.8082 12.6303 18.8082 13.3394Z" fill="white"/>
<path d="M13.6614 11.7513C13.5719 14.4634 13.0328 16.5679 11.9844 18.5757C11.7933 18.9421 11.5436 19.2686 11.0852 19.4082C10.5174 19.5809 10.0125 19.4898 9.58278 19.0997C9.17293 18.7275 9.03042 18.3269 9.27456 17.8409C10.1153 16.1683 10.6698 14.4359 10.7217 12.6038C10.7737 10.7365 10.3627 8.9424 9.52754 7.21851C9.45353 7.06568 9.3773 6.91475 9.30881 6.76001C9.0028 6.07559 9.28892 5.44052 10.0401 5.13106C10.6709 4.87095 11.537 5.10258 11.8386 5.73954C12.339 6.79514 12.8108 7.87257 13.1333 8.97562C13.4438 10.0436 13.5531 11.1561 13.6614 11.7513Z" fill="white"/>
<path d="M8.4097 12.0603C8.34579 13.7293 7.96072 15.0244 7.21188 16.2599C7.07537 16.4854 6.89704 16.6864 6.56958 16.7723C6.16399 16.8786 5.80338 16.8225 5.49643 16.5824C5.20369 16.3534 5.10189 16.1069 5.27628 15.8078C5.87677 14.7785 6.27288 13.7124 6.30997 12.5849C6.34706 11.4359 6.05352 10.3318 5.45698 9.27093C5.40411 9.17688 5.34966 9.08399 5.30074 8.98877C5.08217 8.56759 5.28654 8.17678 5.82311 7.98634C6.27367 7.82628 6.89231 7.96881 7.10773 8.36079C7.46518 9.01039 7.80211 9.67342 8.03252 10.3522C8.25425 11.0094 8.33237 11.6941 8.4097 12.0603Z" fill="white"/>
</svg>
