<svg width="15" height="15" viewBox="0 0 15 15" fill="none" xmlns="http://www.w3.org/2000/svg">
<path d="M7.2002 0.699951C10.79 0.699951 13.7002 3.6101 13.7002 7.19995C13.7002 10.7898 10.79 13.7 7.2002 13.7C3.61035 13.7 0.700197 10.7898 0.700195 7.19995C0.700195 3.6101 3.61034 0.699951 7.2002 0.699951Z" fill="white" stroke="#A2A2A2"/>
<path d="M7.23573 9.53553L6.892 9.87926L7.23573 10.223L7.57946 9.87926L7.23573 9.53553ZM10.7713 6L10.4275 5.65627L6.892 9.1918L7.23573 9.53553L7.57946 9.87926L11.115 6.34373L10.7713 6ZM7.23573 9.53553L7.57946 9.1918L4.04393 5.65627L3.7002 6L3.35646 6.34373L6.892 9.87926L7.23573 9.53553Z" fill="#A2A2A2"/>
</svg>
