<svg width="24" height="24" viewBox="0 0 24 24" fill="none" xmlns="http://www.w3.org/2000/svg">
<path d="M17.703 24C17.514 24 17.321 23.976 17.13 23.926L1.66602 19.785C0.473022 19.456 -0.237978 18.222 0.0740217 17.03L1.77402 10.511C1.87802 10.111 2.28702 9.86798 2.68902 9.97498C3.08902 10.079 3.33002 10.489 3.22502 10.89L1.52502 17.41C1.42002 17.812 1.65902 18.227 2.05902 18.337L17.514 22.476C17.911 22.581 18.321 22.345 18.425 21.95L18.953 19.82C19.053 19.418 19.459 19.174 19.861 19.272C20.263 19.372 20.508 19.778 20.409 20.18L19.879 22.32C19.612 23.333 18.7 24 17.703 24Z" fill="#222222"/>
<path d="M21.75 18H6.25C5.009 18 4 16.991 4 15.75V4.25C4 3.009 5.009 2 6.25 2H21.75C22.991 2 24 3.009 24 4.25V15.75C24 16.991 22.991 18 21.75 18ZM6.25 3.5C5.836 3.5 5.5 3.836 5.5 4.25V15.75C5.5 16.164 5.836 16.5 6.25 16.5H21.75C22.164 16.5 22.5 16.164 22.5 15.75V4.25C22.5 3.836 22.164 3.5 21.75 3.5H6.25Z" fill="#222222"/>
<path d="M9 9C7.897 9 7 8.103 7 7C7 5.897 7.897 5 9 5C10.103 5 11 5.897 11 7C11 8.103 10.103 9 9 9ZM9 6.5C8.724 6.5 8.5 6.724 8.5 7C8.5 7.276 8.724 7.5 9 7.5C9.276 7.5 9.5 7.276 9.5 7C9.5 6.724 9.276 6.5 9 6.5Z" fill="#222222"/>
<path d="M4.77001 16.9799C4.57801 16.9799 4.38601 16.9069 4.24001 16.7599C3.94701 16.4669 3.94701 15.9919 4.24001 15.6989L8.76001 11.1789C9.44401 10.4949 10.557 10.4949 11.24 11.1789L12.449 12.3879L16.163 7.92995C16.495 7.53195 16.982 7.30195 17.499 7.29895C18.055 7.26795 18.505 7.52095 18.84 7.91395L23.818 13.7219C24.088 14.0359 24.051 14.5099 23.737 14.7799C23.422 15.0499 22.949 15.0129 22.679 14.6989L17.699 8.88895C17.633 8.80995 17.552 8.81395 17.507 8.79995C17.464 8.79995 17.381 8.81295 17.315 8.89095L13.075 13.9809C12.94 14.1429 12.743 14.2409 12.533 14.2499C12.319 14.2619 12.117 14.1799 11.969 14.0309L10.179 12.2409C10.052 12.1139 9.94701 12.1139 9.82001 12.2409L5.30001 16.7599C5.15401 16.9069 4.96201 16.9799 4.77001 16.9799Z" fill="#222222"/>
</svg>
