<svg width="25" height="25" viewBox="0 0 25 25" fill="none" xmlns="http://www.w3.org/2000/svg">
<g clip-path="url(#clip0_584_76099)">
<path d="M10.2012 19.5215C10.2012 20.7011 11.154 21.6583 12.3321 21.665C13.5106 21.6583 14.463 20.7014 14.463 19.5215H10.2012Z" fill="#111111"/>
<path d="M18.8564 15.3496C17.3143 14.164 17.6538 12.3385 17.7235 11.6877C18.3765 5.58632 13.4724 5.29837 13.4724 5.29837C13.4724 3.84639 12.8272 3.66629 12.3336 3.66406C11.84 3.66629 11.1948 3.84639 11.1948 5.29837C11.1948 5.29837 6.29035 5.58632 6.94371 11.6877C7.01338 12.3385 7.35284 14.164 5.81081 15.3496C4.40256 16.4321 4.18132 17.5264 4.41368 18.4155C4.48335 18.683 4.59786 18.8961 5.44318 18.8961H19.224C20.0693 18.8961 20.1838 18.6834 20.2535 18.4155C20.4859 17.5264 20.2646 16.4321 18.8564 15.3496Z" fill="#111111"/>
</g>
<defs>
<clipPath id="clip0_584_76099">
<rect width="15.9992" height="18" fill="white" transform="translate(4.33398 3.66406)"/>
</clipPath>
</defs>
</svg>
