<svg width="36" height="36" viewBox="0 0 36 36" fill="none" xmlns="http://www.w3.org/2000/svg">
<g clip-path="url(#clip0_563_6153)">
<path d="M17.1626 17.9414C17.0243 22.0026 20.3981 25.4137 24.6983 25.5601C26.1354 25.6091 27.4987 25.3122 28.6973 24.7589C28.9305 24.6512 29.199 24.641 29.4335 24.7459L31.0507 25.4692C31.7217 25.7693 32.4279 25.1254 32.191 24.4296L31.6018 22.6995C31.5213 22.4631 31.552 22.2043 31.6722 21.9854C32.3093 20.8247 32.7005 19.4809 32.7496 18.0392C32.888 13.9779 29.5141 10.5668 25.2139 10.4204C20.9137 10.2739 17.3156 13.4475 17.1626 17.9414Z" stroke="#333333" stroke-width="2.05714" stroke-linecap="round" stroke-linejoin="round"/>
<path d="M26.1429 18.3218C26.1429 24.2273 21.074 29.0146 14.8211 29.0146C12.7313 29.0146 10.7659 28.516 9.05248 27.6531C8.71908 27.4852 8.3296 27.457 7.98384 27.5977L5.59923 28.5683C4.60988 28.9709 3.61598 28.0008 3.99453 27.002L4.93588 24.5182C5.06448 24.1789 5.03265 23.8015 4.86896 23.4777C4.00104 21.7604 3.49925 19.7892 3.49925 17.6928C3.49925 11.7873 8.56819 7 14.8211 7C21.074 7 26.1429 11.7873 26.1429 18.3218Z" fill="#333333" stroke="#333333" stroke-width="2.05714" stroke-linecap="round" stroke-linejoin="round"/>
<circle cx="9.61516" cy="18.6181" r="1.46764" fill="white"/>
<circle cx="14.9966" cy="18.6181" r="1.46764" fill="white"/>
<circle cx="20.3778" cy="18.6181" r="1.46764" fill="white"/>
</g>
<defs>
<clipPath id="clip0_563_6153">
<rect width="36" height="36" fill="white"/>
</clipPath>
</defs>
</svg>
