<svg width="37" height="36" viewBox="0 0 37 36" fill="none" xmlns="http://www.w3.org/2000/svg">
<g clip-path="url(#clip0_308_72306)">
<path d="M7.78363 17.1022V24.3526C7.78363 25.2075 8.29766 25.9785 9.0868 26.3073L17.5574 29.8368C18.0787 30.054 18.6651 30.054 19.1863 29.8368L27.6569 26.3073C28.4461 25.9785 28.9601 25.2075 28.9601 24.3526V17.1022" stroke="#333333" stroke-width="2.05714" stroke-linecap="round"/>
<path d="M17.9355 7.83386C18.1806 7.72577 18.4555 7.71176 18.708 7.79285L18.8145 7.83386L31.5674 13.4598C32.3793 13.818 32.4302 14.9198 31.7197 15.371L31.5674 15.452L18.8145 21.079C18.5695 21.187 18.2944 21.2001 18.042 21.119L17.9355 21.079L5.18262 15.452C4.37065 15.0938 4.31966 13.992 5.03027 13.5409L5.18262 13.4598L17.9355 7.83386Z" fill="#333333" stroke="#333333" stroke-width="2.05714" stroke-miterlimit="10" stroke-linejoin="round"/>
<line x1="31.852" y1="15.7596" x2="31.852" y2="22.6873" stroke="#333333" stroke-width="1.54286" stroke-linecap="round"/>
</g>
<defs>
<clipPath id="clip0_308_72306">
<rect width="36" height="36" fill="white" transform="translate(0.375)"/>
</clipPath>
</defs>
</svg>
