<svg width="36" height="36" viewBox="0 0 36 36" fill="none" xmlns="http://www.w3.org/2000/svg">
<g clip-path="url(#clip0_564_6308)">
<path fill-rule="evenodd" clip-rule="evenodd" d="M12 11C12 7.68632 14.6863 5 18 5C21.3137 5 24 7.68632 24 11C24 14.3137 21.3137 17 18 17C14.6863 17 12 14.3137 12 11ZM18 7.4C16.0118 7.4 14.4 9.01178 14.4 11C14.4 12.9882 16.0118 14.6 18 14.6C19.9882 14.6 21.6 12.9882 21.6 11C21.6 9.01178 19.9882 7.4 18 7.4Z" fill="#333333"/>
<path fill-rule="evenodd" clip-rule="evenodd" d="M12.3193 19C8.82926 19 6 22.0257 6 25.7582C6 28.1008 7.77583 30 9.9664 30H26.0336C28.2242 30 30 28.1008 30 25.7582C30 22.0257 27.1707 19 23.6807 19H12.3193ZM8.28571 25.7582C8.28571 23.3757 10.0916 21.4444 12.3193 21.4444H23.6807C25.9084 21.4444 27.7143 23.3757 27.7143 25.7582C27.7143 26.7508 26.9618 27.5556 26.0336 27.5556H9.9664C9.03817 27.5556 8.28571 26.7508 8.28571 25.7582Z" fill="#333333"/>
</g>
<defs>
<clipPath id="clip0_564_6308">
<rect width="36" height="36" fill="white"/>
</clipPath>
</defs>
</svg>
