<svg width="36" height="26" viewBox="0 0 36 26" fill="none" xmlns="http://www.w3.org/2000/svg">
<path d="M7.40863 11.1027V18.3531C7.40863 19.208 7.92266 19.9791 8.7118 20.3079L17.1824 23.8373C17.7037 24.0545 18.2901 24.0545 18.8113 23.8373L27.2819 20.3079C28.0711 19.9791 28.5851 19.208 28.5851 18.3531V11.1027" stroke="#333333" stroke-width="2.05714" stroke-linecap="round"/>
<path d="M17.5605 1.83432C17.8056 1.72623 18.0805 1.71222 18.333 1.7933L18.4395 1.83432L31.1924 7.4603C32.0584 7.84233 32.0584 9.07045 31.1924 9.45248L18.4395 15.0794C18.1596 15.2028 17.8404 15.2028 17.5605 15.0794L4.80762 9.45248C3.99565 9.09429 3.94466 7.99246 4.65527 7.54135L4.80762 7.4603L17.5605 1.83432Z" stroke="#333333" stroke-width="2.05714" stroke-miterlimit="10" stroke-linejoin="round"/>
<line x1="31.4769" y1="9.76005" x2="31.4769" y2="16.6878" stroke="#333333" stroke-width="1.54286" stroke-linecap="round"/>
</svg>
