<svg width="28" height="28" viewBox="0 0 28 28" fill="none" xmlns="http://www.w3.org/2000/svg">
<path d="M6.33333 10H21.6667C22.9554 10 24 11.0447 24 12.3333V22.8333C24 24.122 22.9554 25.1667 21.6667 25.1667H6.33333C5.04467 25.1667 4 24.122 4 22.8333V12.3333C4 11.0447 5.04467 10 6.33333 10Z" stroke="#111111" stroke-width="1.4" stroke-linecap="round" stroke-linejoin="round"/>
<path d="M14 10V25" stroke="#111111" stroke-width="1.4" stroke-linecap="round" stroke-linejoin="round"/>
<path d="M4 18H23" stroke="#111111" stroke-width="1.4" stroke-linecap="round" stroke-linejoin="round"/>
<path d="M21.3641 5.32944C21.8509 6.5226 20.5886 8.16597 18.5444 9.00007C16.5001 9.83416 14.4484 9.54303 13.9616 8.34987C13.4747 7.1567 14.7371 5.51333 16.7813 4.67924C18.8255 3.84515 20.8773 4.13627 21.3641 5.32944Z" stroke="#111111" stroke-width="1.4" stroke-linecap="round" stroke-linejoin="round"/>
<path d="M13.6185 8.26139C13.0325 9.4091 11.1619 9.62692 9.44028 8.74785C7.71867 7.86879 6.79819 6.22581 7.38422 5.0781C7.97024 3.9304 9.84086 3.71258 11.5625 4.59164C13.2841 5.47071 14.2046 7.11369 13.6185 8.26139Z" stroke="#111111" stroke-width="1.4" stroke-linecap="round" stroke-linejoin="round"/>
</svg>
