<svg width="24" height="24" viewBox="0 0 24 24" fill="none" xmlns="http://www.w3.org/2000/svg">
<mask id="path-1-outside-1_569_5978" maskUnits="userSpaceOnUse" x="1.98096" y="0.999268" width="21" height="23" fill="black">
<rect fill="white" x="1.98096" y="0.999268" width="21" height="23"/>
<path d="M16.981 1.99927C19.1901 1.99927 20.981 3.79013 20.981 5.99927V17.8899C20.9849 17.9258 20.9868 17.9623 20.9868 17.9993V21.9993C20.9868 22.5515 20.5391 22.9993 19.9868 22.9993H17.9868C17.4347 22.9991 16.9868 22.5514 16.9868 21.9993V19.9993H6.98096V21.9993C6.98095 22.5515 6.53324 22.9993 5.98096 22.9993H3.98096C3.42879 22.9991 2.98096 22.5515 2.98096 21.9993V5.99927C2.98096 3.79013 4.77182 1.99927 6.98096 1.99927H16.981Z"/>
</mask>
<path d="M16.981 1.99927C19.1901 1.99927 20.981 3.79013 20.981 5.99927V17.8899C20.9849 17.9258 20.9868 17.9623 20.9868 17.9993V21.9993C20.9868 22.5515 20.5391 22.9993 19.9868 22.9993H17.9868C17.4347 22.9991 16.9868 22.5514 16.9868 21.9993V19.9993H6.98096V21.9993C6.98095 22.5515 6.53324 22.9993 5.98096 22.9993H3.98096C3.42879 22.9991 2.98096 22.5515 2.98096 21.9993V5.99927C2.98096 3.79013 4.77182 1.99927 6.98096 1.99927H16.981Z" fill="#95C53C"/>
<path d="M20.981 5.99927L21.981 5.99927V5.99927L20.981 5.99927ZM20.981 17.8899H19.981V17.9441L19.9868 17.9981L20.981 17.8899ZM20.9868 21.9993L21.9868 21.9993V21.9993H20.9868ZM17.9868 22.9993L17.9865 23.9993H17.9868V22.9993ZM16.9868 21.9993L15.9868 21.9993L15.9868 21.9993L16.9868 21.9993ZM16.9868 19.9993H17.9868V18.9993H16.9868V19.9993ZM6.98096 19.9993V18.9993H5.98096V19.9993H6.98096ZM6.98096 21.9993L7.98096 21.9993V21.9993H6.98096ZM3.98096 22.9993L3.98072 23.9993H3.98096V22.9993ZM2.98096 21.9993L1.98096 21.9993L1.98096 21.9993L2.98096 21.9993ZM6.98096 1.99927L6.98096 0.999268L6.98096 0.999268L6.98096 1.99927ZM16.981 1.99927V2.99927C18.6378 2.99927 19.981 4.34241 19.981 5.99927L20.981 5.99927L21.981 5.99927C21.981 3.23784 19.7424 0.999268 16.981 0.999268V1.99927ZM20.981 5.99927H19.981V17.8899H20.981H21.981V5.99927H20.981ZM20.981 17.8899L19.9868 17.9981C19.9867 17.9971 19.9868 17.9975 19.9868 17.9993H20.9868H21.9868C21.9868 17.9271 21.983 17.8545 21.9751 17.7817L20.981 17.8899ZM20.9868 17.9993H19.9868V21.9993H20.9868H21.9868V17.9993H20.9868ZM20.9868 21.9993L19.9868 21.9993L19.9868 21.9993V22.9993V23.9993C21.0914 23.9993 21.9868 23.1038 21.9868 21.9993L20.9868 21.9993ZM19.9868 22.9993V21.9993H17.9868V22.9993V23.9993H19.9868V22.9993ZM17.9868 22.9993L17.9872 21.9993L17.9868 21.9993L16.9868 21.9993L15.9868 21.9993C15.9868 23.1041 16.8827 23.9989 17.9865 23.9993L17.9868 22.9993ZM16.9868 21.9993H17.9868V19.9993H16.9868H15.9868V21.9993H16.9868ZM16.9868 19.9993V18.9993H6.98096V19.9993V20.9993H16.9868V19.9993ZM6.98096 19.9993H5.98096V21.9993H6.98096H7.98096V19.9993H6.98096ZM6.98096 21.9993L5.98096 21.9993L5.98096 21.9993V22.9993V23.9993C7.08553 23.9993 7.98095 23.1038 7.98096 21.9993L6.98096 21.9993ZM5.98096 22.9993V21.9993H3.98096V22.9993V23.9993H5.98096V22.9993ZM3.98096 22.9993L3.98119 21.9993L3.98096 21.9993L2.98096 21.9993L1.98096 21.9993C1.98096 23.104 2.87668 23.999 3.98072 23.9993L3.98096 22.9993ZM2.98096 21.9993H3.98096V5.99927H2.98096H1.98096V21.9993H2.98096ZM2.98096 5.99927H3.98096C3.98096 4.34241 5.3241 2.99927 6.98096 2.99927L6.98096 1.99927L6.98096 0.999268C4.21953 0.999269 1.98096 3.23784 1.98096 5.99927H2.98096ZM6.98096 1.99927V2.99927H16.981V1.99927V0.999268H6.98096V1.99927Z" fill="white" mask="url(#path-1-outside-1_569_5978)"/>
<path d="M4.9873 6.99988C4.9873 6.44759 5.43502 5.99988 5.9873 5.99988H17.9873C18.5396 5.99988 18.9873 6.44759 18.9873 6.99988V9.99988C18.9873 10.5522 18.5396 10.9999 17.9873 10.9999H5.98731C5.43502 10.9999 4.9873 10.5522 4.9873 9.99988V6.99988Z" fill="#FAFAFF"/>
<path d="M4.9873 14.9998C4.9873 13.8952 5.88274 12.9998 6.9873 12.9998V12.9998C8.09187 12.9998 8.9873 13.8952 8.9873 14.9998V14.9998C8.9873 16.1043 8.09187 16.9998 6.9873 16.9998V16.9998C5.88274 16.9998 4.9873 16.1043 4.9873 14.9998V14.9998Z" fill="#FAFAFF"/>
<path d="M14.981 14.9998C14.981 13.8952 15.8764 12.9998 16.981 12.9998V12.9998C18.0855 12.9998 18.981 13.8952 18.981 14.9998V14.9998C18.981 16.1043 18.0855 16.9998 16.981 16.9998V16.9998C15.8764 16.9998 14.981 16.1043 14.981 14.9998V14.9998Z" fill="#FAFAFF"/>
</svg>
